<svg xmlns="http://www.w3.org/2000/svg"  viewBox="2 3 21 18" style="transform: rotate(0deg); "><g><path fill-rule="evenodd" d="M14.96 21.758c-.53.16-1.058-.197-1.165-.739l-.008-.038c-.107-.542.248-1.062.773-1.235a8.114 8.114 0 003.207-1.979 8.114 8.114 0 001.98-3.207c.172-.525.692-.88 1.234-.773l.038.008c.542.107.899.636.74 1.164a10.15 10.15 0 01-2.55 4.25 10.15 10.15 0 01-4.25 2.55zM10.204 2.981c-.107-.542-.635-.899-1.164-.74a10.15 10.15 0 00-4.25 2.55 10.15 10.15 0 00-2.55 4.25c-.159.529.198 1.057.74 1.164l.038.008c.542.107 1.062-.248 1.235-.773a8.114 8.114 0 011.979-3.207 8.114 8.114 0 013.207-1.98c.525-.172.88-.692.773-1.234l-.008-.038zM2.242 14.959c-.16-.528.197-1.057.739-1.164l.038-.008c.542-.107 1.062.248 1.235.773a8.114 8.114 0 001.979 3.207 8.114 8.114 0 003.207 1.98c.525.172.88.692.773 1.234l-.008.038c-.107.542-.635.899-1.164.74a10.15 10.15 0 01-4.25-2.55 10.15 10.15 0 01-2.55-4.25zM13.039 2.725a1 1 0 011.236-.687c.284.082.577.188.876.315.508.217.682.832.416 1.316-.266.484-.87.65-1.385.448a5.094 5.094 0 00-.457-.155 1 1 0 01-.686-1.237zm6.388 4.265c-.438.337-1.063.252-1.439-.153a12.002 12.002 0 00-.82-.803c-.412-.368-.503-.992-.17-1.433.332-.44.962-.531 1.379-.169.415.362.82.757 1.202 1.18.37.41.285 1.041-.152 1.378zm.611 3.285a6.573 6.573 0 00-.155-.473c-.191-.518-.015-1.121.472-1.38.488-.26 1.1-.077 1.307.435.114.283.215.573.3.868a1 1 0 11-1.924.55z" clip-rule="evenodd"></path><rect width="2" height="10" x="8" y="7" rx="1"></rect><rect width="2" height="6" x="11" y="11" rx="1"></rect><rect width="2" height="8" x="14" y="9" rx="1"></rect></g></svg>
